<svg xmlns="http://www.w3.org/2000/svg" x="0px" y="0px"
width="50" height="50"
viewBox="0 0 172 172"
style=" fill:#000000;"><g fill="none" fill-rule="nonzero" stroke="none" stroke-width="1" stroke-linecap="butt" stroke-linejoin="miter" stroke-miterlimit="10" stroke-dasharray="" stroke-dashoffset="0" font-family="none" font-weight="none" font-size="none" text-anchor="none" style="mix-blend-mode: normal"><path d="M0,172v-172h172v172z" fill="none"></path><g fill="#000000"><path d="M148.35,6.88c-4.28656,0 -8.55969,1.67969 -11.825,4.945l-2.795,2.795l23.65,23.65c-0.01344,0.01344 2.795,-2.795 2.795,-2.795c6.54406,-6.54406 6.53063,-17.11937 0,-23.65c-3.27875,-3.26531 -7.53844,-4.945 -11.825,-4.945zM128.4625,20.7475c-0.77937,0.1075 -1.505,0.49719 -2.0425,1.075l-111.585,111.6925c-0.44344,0.40313 -0.77937,0.92719 -0.9675,1.505l-6.88,25.8c-0.30906,1.1825 0.04031,2.43219 0.90031,3.29219c0.86,0.86 2.10969,1.20938 3.29219,0.90031l25.8,-6.88c0.57781,-0.18812 1.10188,-0.52406 1.505,-0.9675l111.6925,-111.585c1.37063,-1.33031 1.38406,-3.52062 0.05375,-4.89125c-1.33031,-1.37062 -3.52062,-1.38406 -4.89125,-0.05375l-111.0475,111.0475l-13.975,-13.975l111.0475,-111.0475c1.03469,-0.99437 1.34375,-2.53969 0.76594,-3.85656c-0.57781,-1.31687 -1.90812,-2.13656 -3.34594,-2.05594c-0.1075,0 -0.215,0 -0.3225,0z"></path></g></g></svg>